<?xml version="1.0" standalone="no"?>
<!DOCTYPE svg PUBLIC "-//W3C//DTD SVG 20010904//EN"
 "http://www.w3.org/TR/2001/REC-SVG-20010904/DTD/svg10.dtd">
<svg version="1.0" xmlns="http://www.w3.org/2000/svg"
 width="239.000000pt" height="68.000000pt" viewBox="0 0 239.000000 68.000000"
 preserveAspectRatio="xMidYMid meet">

<g transform="translate(0.000000,68.000000) scale(0.100000,-0.100000)"
fill="#0000FF" stroke="none">
<path d="M1077 543 c-11 -11 -8 -130 4 -157 23 -49 116 -58 155 -14 15 16 19
36 19 97 0 69 -2 76 -20 76 -18 0 -20 -8 -23 -70 -3 -75 -13 -95 -46 -95 -37
0 -46 19 -46 97 0 64 -2 73 -18 73 -10 0 -22 -3 -25 -7z"/>
<path d="M1307 543 c-4 -3 -7 -48 -7 -100 0 -92 0 -93 25 -93 23 0 24 4 27 63
l3 62 34 -62 c29 -55 38 -63 62 -63 l29 0 0 100 c0 93 -1 100 -20 100 -17 0
-19 -8 -22 -67 l-3 -68 -40 68 c-29 49 -45 67 -60 67 -12 0 -25 -3 -28 -7z"/>
<path d="M1530 451 c0 -98 1 -101 23 -101 21 0 22 3 20 97 -1 91 -3 98 -22
101 -20 3 -21 -1 -21 -97z"/>
<path d="M1627 543 c-4 -3 -7 -48 -7 -100 l0 -93 66 0 c59 0 68 3 95 29 50 51
34 136 -31 158 -38 13 -113 17 -123 6z m117 -49 c41 -40 8 -114 -50 -114 -23
0 -24 3 -24 65 l0 65 29 0 c16 0 37 -7 45 -16z"/>
<path d="M1850 450 l0 -100 65 0 c50 0 65 3 65 14 0 10 -14 16 -42 18 -36 2
-44 7 -46 26 -3 20 1 22 37 22 55 0 58 27 4 32 -31 2 -39 7 -41 26 -3 20 1 22
43 22 39 0 46 3 43 18 -3 14 -16 18 -66 20 l-62 3 0 -101z"/>
<path d="M2043 538 c-45 -22 -35 -71 23 -103 52 -29 52 -50 -1 -50 -36 1 -54
-8 -55 -26 0 -11 58 -19 91 -12 36 7 63 43 54 72 -3 11 -25 30 -47 43 -57 31
-60 48 -10 48 25 0 42 5 45 14 10 24 -59 34 -100 14z"/>
<path d="M2228 535 c-49 -27 -61 -121 -19 -159 41 -37 146 -42 139 -7 -2 12
-12 15 -40 13 -45 -4 -78 24 -78 66 0 40 28 62 78 62 29 0 42 4 42 14 0 29
-76 35 -122 11z"/>
<path d="M20 345 c0 -1 66 -70 148 -153 l147 -152 150 0 150 0 155 155 155
155 -150 0 -150 0 -135 -135 -135 -135 -130 129 c-113 112 -135 130 -167 133
-21 2 -38 3 -38 3z"/>
</g>
</svg>
